<?xml version="1.0" encoding="UTF-8"?>
<svg id="cabinet_logo_vertical_dark" xmlns="http://www.w3.org/2000/svg" viewBox="0 0 200 280">
  <defs>
    <style>
      .cabinet-body { fill: #4a5568; stroke: #718096; stroke-width: 2; }
      .cabinet-door { fill: #2d3748; stroke: #4a5568; stroke-width: 1.5; }
      .cabinet-handle { fill: #e2e8f0; stroke: #f7fafc; stroke-width: 1; }
      .cabinet-shadow { fill: #000000; opacity: 0.4; }
      .text-primary { fill: #f7fafc; font-family: 'Arial', sans-serif; font-weight: bold; text-anchor: middle; }
      .text-secondary { fill: #e2e8f0; font-family: 'Arial', sans-serif; font-weight: normal; text-anchor: middle; }
      .tab-icon { fill: #63b3ed; }
      .tab-bg { fill: #2a4365; stroke: #63b3ed; stroke-width: 1; }
    </style>
  </defs>
  
  <!-- Cabinet Shadow -->
  <ellipse class="cabinet-shadow" cx="100" cy="155" rx="45" ry="8"/>
  
  <!-- Main Cabinet Body -->
  <rect class="cabinet-body" x="55" y="80" width="90" height="70" rx="4"/>
  
  <!-- Cabinet Doors -->
  <rect class="cabinet-door" x="60" y="85" width="38" height="60" rx="2"/>
  <rect class="cabinet-door" x="102" y="85" width="38" height="60" rx="2"/>
  
  <!-- Door Handles -->
  <circle class="cabinet-handle" cx="93" cy="115" r="3"/>
  <circle class="cabinet-handle" cx="107" cy="115" r="3"/>
  
  <!-- Cabinet Shelves -->
  <line x1="60" y1="105" x2="140" y2="105" stroke="#718096" stroke-width="0.5" opacity="0.7"/>
  <line x1="60" y1="125" x2="140" y2="125" stroke="#718096" stroke-width="0.5" opacity="0.7"/>
  
  <!-- Tab Icons floating above cabinet -->
  <g transform="translate(75, 25)">
    <!-- Tab 1 -->
    <rect class="tab-bg" x="0" y="0" width="24" height="16" rx="2"/>
    <circle class="tab-icon" cx="6" cy="8" r="2"/>
    <rect class="tab-icon" x="10" y="6" width="12" height="1.5" rx="0.5"/>
    <rect class="tab-icon" x="10" y="9" width="8" height="1.5" rx="0.5"/>
    
    <!-- Tab 2 -->
    <rect class="tab-bg" x="15" y="10" width="24" height="16" rx="2"/>
    <circle class="tab-icon" cx="21" cy="18" r="2"/>
    <rect class="tab-icon" x="25" y="16" width="12" height="1.5" rx="0.5"/>
    <rect class="tab-icon" x="25" y="19" width="8" height="1.5" rx="0.5"/>
    
    <!-- Tab 3 -->
    <rect class="tab-bg" x="30" y="20" width="24" height="16" rx="2"/>
    <circle class="tab-icon" cx="36" cy="28" r="2"/>
    <rect class="tab-icon" x="40" y="26" width="12" height="1.5" rx="0.5"/>
    <rect class="tab-icon" x="40" y="29" width="8" height="1.5" rx="0.5"/>
  </g>
  
  <!-- Connecting lines -->
  <path d="M100 80 Q95 70 87 41" stroke="#63b3ed" stroke-width="1.5" fill="none" opacity="0.8"/>
  <path d="M105 80 Q110 70 114 51" stroke="#63b3ed" stroke-width="1.5" fill="none" opacity="0.8"/>
  <path d="M110 80 Q115 70 129 61" stroke="#63b3ed" stroke-width="1.5" fill="none" opacity="0.8"/>
  
  <!-- Text -->
  <text class="text-primary" x="100" y="190" font-size="24">The Cabinet</text>
  <text class="text-secondary" x="100" y="210" font-size="12">Professional Tab</text>
  <text class="text-secondary" x="100" y="225" font-size="12">Management</text>
  
  <!-- Decorative elements -->
  <circle cx="50" cy="40" r="2" fill="#63b3ed" opacity="0.4"/>
  <circle cx="150" cy="50" r="1.5" fill="#63b3ed" opacity="0.6"/>
  <circle cx="170" cy="35" r="1" fill="#63b3ed" opacity="0.8"/>
</svg>